<svg xmlns="http://www.w3.org/2000/svg" viewBox="0 0 960 720" fill="none" aria-hidden="true">
  <defs>
    <linearGradient id="bg" x1="0" y1="0" x2="960" y2="720" gradientUnits="userSpaceOnUse">
      <stop stop-color="#09090b"/>
      <stop offset="0.45" stop-color="#0f1419"/>
      <stop offset="1" stop-color="#09090b"/>
    </linearGradient>
    <radialGradient id="glowC" cx="0" cy="0" r="1" gradientUnits="userSpaceOnUse" gradientTransform="translate(280 220) rotate(55) scale(420 360)">
      <stop stop-color="#38bdf8" stop-opacity="0.22"/>
      <stop offset="1" stop-color="#38bdf8" stop-opacity="0"/>
    </radialGradient>
    <radialGradient id="glowW" cx="0" cy="0" r="1" gradientUnits="userSpaceOnUse" gradientTransform="translate(720 140) rotate(120) scale(280 240)">
      <stop stop-color="#fbbf24" stop-opacity="0.14"/>
      <stop offset="1" stop-color="#fbbf24" stop-opacity="0"/>
    </radialGradient>
    <linearGradient id="strokeA" x1="0" y1="0" x2="1" y2="1">
      <stop stop-color="#38bdf8" stop-opacity="0.55"/>
      <stop offset="1" stop-color="#7dd3fc" stop-opacity="0.15"/>
    </linearGradient>
    <linearGradient id="strokeB" x1="1" y1="0" x2="0" y2="1">
      <stop stop-color="#fbbf24" stop-opacity="0.35"/>
      <stop offset="1" stop-color="#38bdf8" stop-opacity="0.2"/>
    </linearGradient>
    <filter id="soft" x="-20%" y="-20%" width="140%" height="140%">
      <feGaussianBlur stdDeviation="1.2" result="b"/>
      <feMerge>
        <feMergeNode in="b"/>
        <feMergeNode in="SourceGraphic"/>
      </feMerge>
    </filter>
  </defs>
  <rect width="960" height="720" fill="url(#bg)"/>
  <rect width="960" height="720" fill="url(#glowC)"/>
  <rect width="960" height="720" fill="url(#glowW)"/>
  <g opacity="0.14" stroke="#fafafa" stroke-width="0.5">
    <path d="M0 120h960M0 240h960M0 360h960M0 480h960M0 600h960"/>
    <path d="M120 0v720M240 0v720M360 0v720M480 0v720M600 0v720M720 0v720M840 0v720"/>
  </g>
  <g filter="url(#soft)" stroke-linecap="round" stroke-linejoin="round" fill="none">
    <path d="M120 520 C220 360 340 280 480 300 S760 240 860 160" stroke="url(#strokeA)" stroke-width="1.8"/>
    <path d="M80 180 C200 320 380 400 520 380 S780 440 900 520" stroke="url(#strokeB)" stroke-width="1.4"/>
    <path d="M200 640 C320 480 520 420 680 460 S880 380 920 220" stroke="url(#strokeA)" stroke-width="1.2" opacity="0.7"/>
  </g>
  <g>
    <circle cx="480" cy="300" r="5" fill="#38bdf8" fill-opacity="0.85"/>
    <circle cx="480" cy="300" r="14" stroke="#38bdf8" stroke-opacity="0.25" stroke-width="1"/>
    <circle cx="280" cy="420" r="4" fill="#fbbf24" fill-opacity="0.75"/>
    <circle cx="720" cy="380" r="4" fill="#7dd3fc" fill-opacity="0.6"/>
    <circle cx="620" cy="200" r="3" fill="#a5b4fc" fill-opacity="0.5"/>
  </g>
  <rect x="380" y="260" width="200" height="80" rx="12" stroke="rgba(56,189,248,0.2)" stroke-width="1" fill="rgba(9,9,11,0.35)"/>
  <path d="M400 300h160M400 318h120" stroke="rgba(250,250,250,0.08)" stroke-width="1"/>
</svg>
